<?xml version="1.0" encoding="UTF-8"?>
<svg id="Layer_1" xmlns="http://www.w3.org/2000/svg" version="1.1" viewBox="0 0 160 160">
  <!-- Generator: Adobe Illustrator 30.1.0, SVG Export Plug-In . SVG Version: 2.1.1 Build 136)  -->
  <defs>
    <style>
      .st0 {
        fill: #ff8d40;
      }
    </style>
  </defs>
  <path class="st0" d="M118.32,116.47c2.71.22,10.13.44,16.74-4.42,5.52-4.07,7.77-9.69,9.3-13.54,1.57-3.94,2.2-7.41,2.49-9.8-16.83-19.29-33.69-38.6-50.52-57.89L10.56,128.84h10.54L96.05,42.02l20.65,22.7-18.36,22.02-10.61-11.81.04,9.99,10.54,11.87,23.77-27.01,18.58,20.08c-.44,6.76-2.69,11.2-4.06,13.41-1.75,2.86-3.27,4.05-3.97,4.55-3.1,2.23-6.46,2.45-8.06,2.45l-5.59.04,1.16-24.38-5.02,24.32-29.25-.17-15.87,18.76h8.69l10.87-12.07,24.34-.24-2.4,12.31,35.93.33-29.49-5.16.33-7.54h.04Z"/>
  <polygon class="st0" points="40.49 128.76 87.75 74.94 87.78 84.95 49.83 128.76 40.49 128.76"/>
  <polygon class="st0" points="118.99 110.32 117.95 124.01 116.61 111.69 118.99 110.32"/>
</svg>
